<?xml version="1.0" encoding="utf-8"?>
<!-- Generator: Adobe Illustrator 22.1.0, SVG Export Plug-In . SVG Version: 6.00 Build 0)  -->
<svg version="1.1" id="Ebene_1" xmlns="http://www.w3.org/2000/svg" xmlns:xlink="http://www.w3.org/1999/xlink" x="0px" y="0px"
	 viewBox="0 0 396.9 113.4" style="enable-background:new 0 0 396.9 113.4;" xml:space="preserve">
<style type="text/css">
	.st0{display:none;fill:#FFFFFF;}
	.st1{fill:#164194;}
</style>
<polygon class="st0" points="-133,-68.2 528.1,-68.2 528.1,182.6 -133,182.6 "/>
<g>
	<path class="st1" d="M69.7,57.4H59.4l1.2-24.2c0.2-4.8,0.5-8.8,0.8-12.3h-0.2c-1.2,3.2-2.8,6.9-4.8,10.9L43.7,57.4h-9.5l-3-23.6
		c-0.5-4.2-0.9-9.1-0.8-12.8h-0.1c-1.1,4.5-2.3,8.5-3.8,13l-7.3,23.5h-10L26.5,6.5h11.2l3.4,26.2c0.5,3.6,0.7,7.1,0.7,10.7h0.2
		c1.5-3.9,2.8-6.8,4.8-10.6L60.2,6.5h11.2L69.7,57.4z"/>
	<path class="st1" d="M87.1,57.4h-9.5l7.5-39.2h9.5L87.1,57.4z"/>
	<path class="st1" d="M129.9,27.1c-2.1-0.8-4.7-1.3-6.8-1.3c-9.6,0-13.6,9.4-13.6,15.7c0,4.8,2.9,7.8,8.6,7.8c3.1,0,5.7-0.5,8.2-1.4
		l-1,8.6c-2.9,0.8-6.4,1.5-9.5,1.5c-11.5,0-16.7-5.7-16.7-14.6c0-13.1,8.2-25.9,24.8-25.9c3,0,6,0.3,8.4,1L129.9,27.1z"/>
	<path class="st1" d="M156.4,40.6c0.7,1.2,1.3,2.6,2.2,4.3l6.2,12.5h-11.2l-6.6-15.6h-0.4l-2.9,15.6h-9.5l7.5-39.2
		c3.1-0.2,9-0.2,13.7-0.2c9.2,0,13.2,3.9,13.2,9.6C168.4,35.6,161.9,39.8,156.4,40.6z M152.9,25.4c-1.4,0-2.3,0.1-3.2,0.2l-2,10
		c0.7,0.1,1.4,0.2,3,0.2c4.2,0,7.3-2.8,7.3-6.5C158.1,27,156.6,25.4,152.9,25.4z"/>
	<path class="st1" d="M189.2,58.1c-10.9,0-16.3-5.7-16.3-14.9c0-13.6,9.7-25.7,24.5-25.7c10.3,0,16.1,5.7,16.1,15.4
		C213.4,47.3,202.1,58.1,189.2,58.1z M195.7,26c-6.6,0-12.8,5.7-12.8,15.8c0,4.8,2.4,7.7,7.4,7.7c8.4,0,13.1-8.2,13.1-15.5
		C203.4,29.2,200.8,26,195.7,26z"/>
	<path class="st1" d="M257.4,57.4h-11.2L236.3,32c-1.4-3.8-2.6-7.7-3.5-11.1c-0.6,4.8-1.4,9.5-2.3,14.6l-4.2,22H217l9.7-50.9h11.4
		l9.5,24.1c1.6,4,2.8,8.2,3.8,12.1c0.6-4.7,1.5-10.3,2.4-15.1l3.8-21.1h9.4L257.4,57.4z"/>
	<path class="st1" d="M284.6,58.1c-10.9,0-16.3-5.7-16.3-14.9c0-13.6,9.7-25.7,24.5-25.7c10.3,0,16.1,5.7,16.1,15.4
		C308.9,47.3,297.5,58.1,284.6,58.1z M291.2,26c-6.6,0-12.8,5.7-12.8,15.8c0,4.8,2.4,7.7,7.4,7.7c8.4,0,13.1-8.2,13.1-15.5
		C298.8,29.2,296.3,26,291.2,26z"/>
	<path class="st1" d="M332.6,57.4h-11.2l-6.9-39.2h9.9l3.2,18.2c0.6,3.3,1,7,1.3,10.5h0.1c1.5-3.7,3.3-7.5,5-10.5l10-18.3h10.3
		L332.6,57.4z"/>
	<path class="st1" d="M375.4,57.4l-1.1-6.9h-14.9l-3.8,6.9h-9.9l21.7-39.2H379l6.7,39.2H375.4z M371.9,34.3
		c-0.3-1.8-0.5-3.8-0.6-5.7h-0.1c-1,2.1-1.9,3.9-2.9,5.7l-5.1,9.2h10.2L371.9,34.3z"/>
</g>
<g>
	<path d="M15.5,99.3c-1.9,0-3.7-0.2-5.2-0.6l0.2-3.4c1.5,0.5,3.5,1,5.4,1c3.1,0,5.7-1.3,5.7-4.5c0-5.9-11.7-3.5-11.7-11.8
		c0-4.3,3.4-7.4,9.2-7.4c1.6,0,3.2,0.2,4.7,0.5l-0.2,3.2c-1.5-0.4-3.2-0.7-4.7-0.7c-3.5,0-5.4,1.6-5.4,4c0,5.6,11.7,3.6,11.7,11.7
		C25.2,95.9,21.5,99.3,15.5,99.3z"/>
	<path d="M37.3,99.3c-5.2,0-8.6-3-8.6-9.7c0-5.6,3.5-10.1,9.3-10.1c4.9,0,8.6,2.7,8.6,9.6C46.6,94.8,42.9,99.3,37.3,99.3z
		 M37.7,82.3c-2.8,0-5.4,2.1-5.4,6.9c0,4.6,1.9,7.2,5.4,7.2c2.8,0,5.3-2.2,5.3-7.1C43,84.9,41.2,82.3,37.7,82.3z"/>
	<path d="M62.6,73.8c-0.9-0.3-1.9-0.4-2.8-0.4c-2.7,0-3.9,1.5-3.9,4.9v1.5h5.3v2.7h-5.3v16.4h-3.5V82.5h-3.9v-2.7h3.9v-1.4
		c0-5.3,2.6-7.8,7.4-7.8c1.1,0,2.1,0.1,3.2,0.3L62.6,73.8z"/>
	<path d="M70,99.2c-3.9,0-5.1-1.6-5.1-5.7v-11h-3.9v-2.7h3.9v-6.2l3.5-1v7.2h5.4v2.7h-5.4v9.8c0,3.2,0.6,4,2.7,4
		c0.9,0,1.8-0.2,2.6-0.3v2.9C72.6,99.1,71.2,99.2,70,99.2z"/>
	<path d="M98.8,98.9h-3.9l-3.8-11.3c-0.4-1.2-0.7-2.5-1.1-3.8h0c-0.4,1.7-0.8,3.2-1.3,4.8l-3.2,10.3h-3.8l-5.9-19.1h3.8L82.5,90
		c0.5,1.8,1,3.5,1.4,5h0c0.4-1.7,0.8-3.3,1.3-4.9l3.3-10.3h3.7l3.3,10.2c0.8,2.4,1.1,3.6,1.5,5.1h0c0.4-1.6,0.7-3,1.3-4.9l3.1-10.3
		h3.7L98.8,98.9z"/>
	<path d="M118.5,98.9c0-1.3,0-2.7,0.2-3.8h-0.1c-0.9,2.3-3.3,4.2-6.5,4.2c-3.2,0-5.3-1.7-5.3-4.7c0-4.2,4.3-6.9,11.5-6.9v-1.4
		c0-2.7-1-4.1-4.2-4.1c-1.8,0-4.1,0.6-5.8,1.6l-0.3-3c1.8-0.8,4.2-1.4,6.7-1.4c5.5,0,7.1,2.6,7.1,6.4v10.4c0.9,0.2,2.2,0.3,3.3,0.4
		v2C123.2,98.9,120.5,99,118.5,98.9z M118.3,90.1c-6.7,0-8.1,2-8.1,3.8c0,1.6,1.2,2.7,2.9,2.7c3.1,0,5.2-3.1,5.2-6.1V90.1z"/>
	<path d="M133,84.3L133,84.3c0.9-2.7,2.8-5.3,6.7-4.9l-0.2,3.4c-4-0.7-6,2.3-6,8.4v7.7H130V82.5c-0.9-0.2-2.2-0.3-3.3-0.4v-2
		c1.9-0.2,4.6-0.4,6.7-0.3C133.4,81,133.3,82.7,133,84.3z"/>
	<path d="M157.8,89.1h-12.5c-0.2,5.1,2,7.3,6,7.3c2,0,4-0.5,5.6-1.2l0.3,2.8c-1.8,0.8-4.1,1.2-6.5,1.2c-5.9,0-9-3.1-9-9.8
		c0-5.7,3.1-10,8.5-10c5.4,0,7.7,3.7,7.7,8C157.9,87.9,157.9,88.5,157.8,89.1z M150.1,82c-2.5,0-4.3,1.9-4.7,4.7h8.9
		C154.4,83.9,152.8,82,150.1,82z"/>
	<path d="M184.5,98.9c0-1.1,0.1-2.8,0.3-4l-0.1,0c-1.1,2.7-3.5,4.4-6.7,4.4c-4.4,0-5.7-2.7-5.7-6.1V82.5c-0.9-0.2-2.2-0.3-3.3-0.4
		v-2c2-0.2,4.7-0.4,6.8-0.3v12.4c0,2.7,0.8,4.3,3.3,4.3c3.2,0,5.5-3.2,5.5-7.4v-9.2h3.4v16.4c0.9,0.2,2.2,0.3,3.3,0.4v2
		C189.2,98.9,186.6,99,184.5,98.9z"/>
	<path d="M199.1,83.8L199.1,83.8c1.2-2.6,3.5-4.4,6.8-4.4c4.4,0,5.8,2.7,5.8,6.1v13.4h-3.5V86.5c0-2.7-0.7-4.3-3.3-4.3
		c-3.2,0-5.4,3.2-5.4,7.4v9.2h-3.5V82.5c-0.9-0.2-2.2-0.3-3.3-0.4v-2c1.9-0.2,4.6-0.4,6.7-0.3C199.4,80.9,199.4,82.7,199.1,83.8z"/>
	<path d="M229.8,98.9c0-1.1,0.1-2.8,0.3-3.9l-0.1,0c-1.1,2.6-3.4,4.3-6.4,4.3c-4.7,0-7-3.4-7-9c0-6.7,3.8-10.7,9.9-10.7
		c1,0,2.1,0.1,3.2,0.2v-6.2c-0.9-0.2-2.2-0.3-3.3-0.4v-2c1.9-0.2,4.6-0.4,6.8-0.3v25.4c0.9,0.2,2.2,0.3,3.3,0.4v2
		C234.6,98.9,231.9,99,229.8,98.9z M229.7,82.7c-1.2-0.3-2.3-0.4-3.4-0.4c-3.7,0-6.1,2.2-6.1,7.7c0,4.1,1.3,6.5,4.2,6.5
		c3.5,0,5.2-4,5.2-7.4V82.7z"/>
	<path d="M253.2,99.3c-1.9,0-3.7-0.2-5.2-0.6l0.2-3.4c1.5,0.5,3.5,1,5.4,1c3.1,0,5.7-1.3,5.7-4.5c0-5.9-11.7-3.5-11.7-11.8
		c0-4.3,3.4-7.4,9.2-7.4c1.6,0,3.2,0.2,4.7,0.5l-0.2,3.2c-1.5-0.4-3.2-0.7-4.7-0.7c-3.5,0-5.4,1.6-5.4,4c0,5.6,11.7,3.6,11.7,11.7
		C262.9,95.9,259.2,99.3,253.2,99.3z"/>
	<path d="M274.4,100.8c-2.2,5.9-4,7.9-8.3,7.9c-0.7,0-1.7-0.1-2.5-0.2l0.3-3.1c0.8,0.3,1.6,0.4,2.5,0.4c2.1,0,3.2-1,4.6-4.7l0.8-2.2
		l-7.2-19.1h3.9l3.6,9.9c0.6,1.7,1,3.2,1.5,4.7h0.1c0.3-1.3,1.2-3.8,1.9-5.9l3.1-8.8h3.8L274.4,100.8z"/>
	<path d="M288.8,99.3c-1.4,0-2.8-0.1-4-0.3l0.1-3.1c1.2,0.4,2.7,0.7,4.2,0.7c2.5,0,4.3-1.2,4.3-2.9c0-4.3-8.9-1.7-8.9-8.4
		c0-3.2,2.7-5.7,7.7-5.7c1.2,0,2.5,0.2,3.7,0.4l-0.1,2.9c-1.2-0.4-2.6-0.6-3.8-0.6c-2.5,0-3.8,1.1-3.8,2.7c0,4.2,8.9,1.9,8.9,8.4
		C297,96.6,293.9,99.3,288.8,99.3z"/>
	<path d="M308.1,99.2c-3.9,0-5.1-1.6-5.1-5.7v-11H299v-2.7h3.9v-6.2l3.5-1v7.2h5.4v2.7h-5.4v9.8c0,3.2,0.6,4,2.7,4
		c0.9,0,1.8-0.2,2.6-0.3v2.9C310.7,99.1,309.3,99.2,308.1,99.2z"/>
	<path d="M330.9,89.1h-12.5c-0.2,5.1,2,7.3,6,7.3c2,0,4-0.5,5.6-1.2l0.3,2.8c-1.8,0.8-4.1,1.2-6.5,1.2c-5.9,0-9-3.1-9-9.8
		c0-5.7,3.1-10,8.5-10c5.4,0,7.7,3.7,7.7,8C331,87.9,331,88.5,330.9,89.1z M323.2,82c-2.5,0-4.3,1.9-4.7,4.7h8.9
		C327.5,83.9,325.9,82,323.2,82z"/>
	<path d="M360.9,98.9V86.6c0-2.7-0.6-4.3-3.1-4.3c-2.7,0-5.4,2.9-5.4,7.5v9.1H349V86.6c0-2.4-0.5-4.3-3.1-4.3
		c-2.9,0-5.3,3.1-5.3,7.5v9.1H337V82.5c-0.9-0.2-2.2-0.3-3.3-0.4v-2c1.9-0.2,4.6-0.4,6.7-0.3c0,1.1-0.1,2.8-0.3,4l0.1,0
		c1.1-2.7,3.6-4.4,6.7-4.4c4,0,5.1,2.8,5.3,4.4c0.8-1.8,2.8-4.4,6.5-4.4c3.6,0,5.7,2,5.7,6.3v13.2H360.9z"/>
	<path d="M385.3,89.1h-12.5c-0.2,5.1,2,7.3,6,7.3c2,0,4-0.5,5.6-1.2l0.3,2.8c-1.8,0.8-4.1,1.2-6.5,1.2c-5.9,0-9-3.1-9-9.8
		c0-5.7,3.1-10,8.5-10c5.4,0,7.7,3.7,7.7,8C385.4,87.9,385.3,88.5,385.3,89.1z M377.6,82c-2.5,0-4.3,1.9-4.7,4.7h8.9
		C381.9,83.9,380.3,82,377.6,82z"/>
</g>
</svg>
